<svg xmlns="http://www.w3.org/2000/svg" width="512" height="512" viewBox="0 0 512 512">
  <defs>
    <linearGradient id="g" x1="0" y1="0" x2="1" y2="1">
      <stop offset="0" stop-color="#3b82f6"/>
      <stop offset="0.5" stop-color="#6366f1"/>
      <stop offset="1" stop-color="#c084fc"/>
    </linearGradient>
    <filter id="glow" x="-50%" y="-50%" width="200%" height="200%">
      <feGaussianBlur stdDeviation="12" result="b"/>
      <feMerge>
        <feMergeNode in="b"/>
        <feMergeNode in="SourceGraphic"/>
      </feMerge>
    </filter>
  </defs>
  <rect width="512" height="512" rx="120" fill="#020617"/>
  <circle cx="256" cy="256" r="170" fill="url(#g)" opacity="0.18"/>
  <path d="M256 122c74.7 0 134 59.3 134 134s-59.3 134-134 134S122 330.7 122 256 181.3 122 256 122Z" fill="url(#g)" opacity="0.22"/>
  <path d="M169 303l93-179 24 76h79L251 389l-24-76h-58Z" fill="url(#g)" filter="url(#glow)"/>
  <path d="M169 303l93-179 24 76h79L251 389l-24-76h-58Z" fill="none" stroke="rgba(255,255,255,0.22)" stroke-width="8" stroke-linejoin="round"/>
</svg>
